<svg xmlns="http://www.w3.org/2000/svg" width="121.085" height="121.084" viewBox="0 0 121.085 121.084">
  <path id="communication_1_" data-name="communication (1)" d="M113.83,97.492a36.7,36.7,0,0,0,7.253-21.927c0-12.693-6.583-24.477-17.688-31.831A45.97,45.97,0,0,0,88.263,13.857,53.753,53.753,0,0,0,51.791,0,53.753,53.753,0,0,0,15.32,13.857,45.716,45.716,0,0,0,0,47.8,44.809,44.809,0,0,0,9.241,75.072L.344,97.081a4.73,4.73,0,0,0,6.293,6.1L32.013,92a54.438,54.438,0,0,0,9.826,2.732,40.719,40.719,0,0,0,14.309,13.933A44.768,44.768,0,0,0,78.4,114.693c.116.009.232.018.35.018a45.016,45.016,0,0,0,15.775-2.81l19.92,8.781a4.73,4.73,0,0,0,6.293-6.1Zm-9.8,1,3.573,8.839-11.077-4.883a4.73,4.73,0,0,0-3.764-.022,35.474,35.474,0,0,1-13.819,2.826c-.064,0-.127-.01-.192-.01a34.761,34.761,0,0,1-24.279-9.7A55.148,55.148,0,0,0,76.735,89.71a4.73,4.73,0,1,0-4.284-8.434,46.311,46.311,0,0,1-38.663,1.236,4.728,4.728,0,0,0-3.764.022L13.48,89.828l5.57-13.779a4.73,4.73,0,0,0-.785-4.841A35.728,35.728,0,0,1,9.459,47.8c0-21.143,18.99-38.344,42.332-38.344S94.124,26.661,94.124,47.8a35.574,35.574,0,0,1-5.806,19.387,4.73,4.73,0,0,0,7.936,5.149,45.373,45.373,0,0,0,6.665-16.89,28.135,28.135,0,0,1,8.706,20.115,27.606,27.606,0,0,1-6.809,18.082A4.73,4.73,0,0,0,104.03,98.489ZM56.285,72.13a4.73,4.73,0,0,1-4.73,4.73h0a4.73,4.73,0,0,1,0-9.46h0A4.73,4.73,0,0,1,56.285,72.13Zm13.24-35.438c0,.066,0,.131,0,.2A17.72,17.72,0,0,1,58.751,53.213,3.745,3.745,0,0,0,56.52,56.69v.3a4.73,4.73,0,0,1-9.46,0v-.3a13.19,13.19,0,0,1,7.977-12.177,8.273,8.273,0,0,0,5.031-7.486c0-.045,0-.091,0-.137a8.276,8.276,0,0,0-16.552,0,4.73,4.73,0,0,1-9.46,0,17.735,17.735,0,0,1,35.47-.2Z" transform="translate(0.001)" fill="#0a1f44"/>
</svg>
