<?xml version="1.0" encoding="utf-8"?>
<!-- Generator: Adobe Illustrator 24.0.1, SVG Export Plug-In . SVG Version: 6.00 Build 0)  -->
<svg version="1.1" id="Layer_1" xmlns="http://www.w3.org/2000/svg" xmlns:xlink="http://www.w3.org/1999/xlink" x="0px" y="0px"
	 viewBox="0 0 507.1 80" style="enable-background:new 0 0 507.1 80;" xml:space="preserve">
<style type="text/css">
	.st0{fill:#7540EE;}
	.st1{fill:#FFAB00;}
	.st2{fill:#5B7FFF;}
	.st3{fill:#36B37E;}
	.st4{fill:#0A1F44;}
</style>
<g id="logo_forest_primary" transform="translate(11880.91 -13929)">
	<g id="Group_31" transform="translate(-11880.91 13929)">
		<g id="Group_1" transform="translate(19.061 0)">
			<path id="Path_1" class="st0" d="M8.1,21.2L0,13.1l7.9-7.9C14.8-1.7,26-1.7,33,5.2l7.9,7.9l-8.1,8.1l-7.9-7.9
				c-2.5-2.4-6.4-2.4-8.9,0L8.1,21.2z"/>
		</g>
		<g id="Group_2" transform="translate(58.811 20.084)">
			<path id="Path_2" class="st1" d="M8.1,40.8L0,32.7l7.9-7.9c2.5-2.5,2.5-6.4,0-8.9L0,8.1L8.1,0L16,7.9c6.9,6.9,6.9,18.2,0,25.1
				L8.1,40.8z"/>
		</g>
		<g id="Group_3" transform="translate(20.083 58.81)">
			<path id="Path_3" class="st2" d="M7.9,16L0,8.1L8.1,0L16,7.9c2.5,2.5,6.4,2.5,8.9,0L32.7,0l8.1,8.1L33,16
				C26,22.9,14.8,22.9,7.9,16z"/>
		</g>
		<g id="Group_4" transform="translate(0 19.062)">
			<path id="Path_4" class="st3" d="M13.1,40.8L5.2,33c-6.9-6.9-6.9-18.2,0-25.1L13.1,0l8.1,8.1L13.3,16c-2.5,2.5-2.5,6.4,0,8.9
				l7.9,7.9L13.1,40.8z"/>
		</g>
	</g>
</g>
<g>
	<path class="st4" d="M134.5,62l-3.1-8.7H115l-3.1,8.7h-10L118,19.4h11L144.9,62H134.5z M123.4,30l-5.2,14.7h10.3L123.4,30z"/>
	<path class="st4" d="M158.6,73.4h-9.1V32.1h8.8v3.1c0.7-1,1.8-1.9,3.4-2.7c1.6-0.7,3.4-1.1,5.4-1.1c4.2,0,7.6,1.5,10.1,4.4
		c2.5,2.9,3.8,6.6,3.8,11.2s-1.3,8.3-4,11.3c-2.7,2.9-6.1,4.4-10.2,4.4c-3.8,0-6.5-1-8.1-3V73.4z M170,52.5c1.3-1.3,2-3.1,2-5.5
		c0-2.4-0.7-4.2-2-5.5c-1.3-1.3-2.9-1.9-4.8-1.9c-1.9,0-3.5,0.6-4.8,1.9c-1.3,1.3-2,3.1-2,5.5c0,2.4,0.7,4.2,2,5.5
		c1.3,1.3,2.9,2,4.8,2C167.1,54.5,168.7,53.9,170,52.5z"/>
	<path class="st4" d="M196,73.4h-9.1V32.1h8.8v3.1c0.7-1,1.8-1.9,3.4-2.7c1.6-0.7,3.4-1.1,5.4-1.1c4.2,0,7.6,1.5,10.1,4.4
		c2.5,2.9,3.8,6.6,3.8,11.2s-1.3,8.3-4,11.3c-2.7,2.9-6.1,4.4-10.2,4.4c-3.8,0-6.5-1-8.1-3V73.4z M207.4,52.5c1.3-1.3,2-3.1,2-5.5
		c0-2.4-0.7-4.2-2-5.5c-1.3-1.3-2.9-1.9-4.8-1.9c-1.9,0-3.5,0.6-4.8,1.9c-1.3,1.3-2,3.1-2,5.5c0,2.4,0.7,4.2,2,5.5
		c1.3,1.3,2.9,2,4.8,2C204.5,54.5,206.1,53.9,207.4,52.5z"/>
	<path class="st4" d="M254.2,29.9l-8.5,2.4c-0.2-1.3-0.9-2.5-2-3.7c-1.1-1.1-2.8-1.7-5.1-1.7c-1.7,0-3.1,0.5-4.2,1.4
		c-1.1,0.9-1.6,2-1.6,3.2c0,2.2,1.4,3.6,4.2,4.1l5.7,1.1c3.9,0.7,7,2.3,9.1,4.6c2.1,2.3,3.2,5.1,3.2,8.2c0,3.6-1.4,6.7-4.3,9.4
		s-6.7,4.1-11.5,4.1c-5.4,0-9.5-1.4-12.5-4.2c-2.9-2.8-4.6-5.9-5-9.5l8.7-2.1c0.2,2.1,1,3.9,2.5,5.3c1.5,1.4,3.6,2.1,6.3,2.1
		c1.8,0,3.3-0.4,4.4-1.2c1.1-0.8,1.6-1.9,1.6-3.2c0-1.1-0.4-2-1.2-2.7c-0.8-0.7-1.9-1.3-3.4-1.5l-5.8-1.1c-3.6-0.7-6.4-2.1-8.5-4.4
		c-2.1-2.2-3.1-4.9-3.1-8.1c0-3.9,1.5-7.2,4.5-9.8c3-2.6,6.6-3.9,10.8-3.9c2.5,0,4.8,0.4,6.8,1.1c2,0.7,3.6,1.6,4.7,2.8
		c1.2,1.2,2.1,2.4,2.7,3.6C253.5,27.2,253.9,28.5,254.2,29.9z"/>
	<path class="st4" d="M279.7,62c-0.2-0.7-0.2-1.7-0.2-3c-0.7,1.2-1.8,2.1-3.3,2.7s-3,0.9-4.7,0.9c-3.5,0-6.3-1.1-8.3-3.3
		c-2-2.2-3-5-3-8.3V32.1h9.1v17c0,1.5,0.4,2.8,1.2,3.7c0.8,1,2,1.4,3.6,1.4c1.5,0,2.7-0.5,3.6-1.4c0.9-0.9,1.4-2.2,1.4-3.7v-17h9.1
		v24.5c0,2,0.1,3.7,0.3,5.4H279.7z"/>
	<path class="st4" d="M310,39.7c-2,0-3.6,0.7-4.9,2c-1.3,1.3-2,3.1-2,5.5c0,2.3,0.7,4.1,2,5.4c1.3,1.3,3,2,5,2c1.6,0,3-0.4,4.1-1.3
		c1.1-0.9,1.8-1.9,2.1-3.2l8.1,2.5c-0.7,2.8-2.3,5.3-4.8,7.3c-2.5,2-5.6,3.1-9.4,3.1c-4.5,0-8.3-1.5-11.4-4.5
		c-3.1-3-4.7-6.8-4.7-11.3c0-4.6,1.5-8.4,4.5-11.4c3-3,6.8-4.5,11.2-4.5c3.9,0,7.1,1,9.6,3c2.5,2,4.1,4.5,4.8,7.4l-8.2,2.5
		c-0.4-1.3-1-2.3-2-3.2C312.9,40.1,311.6,39.7,310,39.7z"/>
	<path class="st4" d="M343.4,39.7c-2,0-3.6,0.7-4.9,2c-1.3,1.3-2,3.1-2,5.5c0,2.3,0.7,4.1,2,5.4c1.3,1.3,3,2,5,2
		c1.6,0,3-0.4,4.1-1.3c1.1-0.9,1.8-1.9,2.1-3.2l8.1,2.5c-0.7,2.8-2.3,5.3-4.8,7.3c-2.5,2-5.6,3.1-9.4,3.1c-4.5,0-8.3-1.5-11.4-4.5
		c-3.1-3-4.7-6.8-4.7-11.3c0-4.6,1.5-8.4,4.5-11.4c3-3,6.8-4.5,11.2-4.5c3.9,0,7.1,1,9.6,3c2.5,2,4.1,4.5,4.8,7.4l-8.2,2.5
		c-0.4-1.3-1-2.3-2-3.2C346.4,40.1,345,39.7,343.4,39.7z"/>
	<path class="st4" d="M382.6,51.3l7.6,2.2c-0.8,2.8-2.3,5-4.7,6.8c-2.4,1.8-5.4,2.7-9,2.7c-4.3,0-8-1.4-11-4.3
		c-3-2.9-4.5-6.8-4.5-11.6c0-4.6,1.5-8.4,4.4-11.4c2.9-2.9,6.4-4.4,10.5-4.4c4.6,0,8.3,1.4,11,4.1c2.7,2.7,4,6.5,4,11.3
		c0,1.5-0.1,2.5-0.2,2.8h-20.8c0.1,1.6,0.8,3,2.1,4.1c1.3,1.1,2.9,1.7,4.7,1.7C379.7,55.2,381.7,53.9,382.6,51.3z M370,43.5h12
		c-0.1-1.4-0.6-2.5-1.6-3.5c-1-1-2.5-1.5-4.4-1.5c-1.8,0-3.2,0.5-4.2,1.6C370.7,41.1,370.1,42.2,370,43.5z"/>
	<path class="st4" d="M394.2,53.5l7.8-1.4c0.1,1.1,0.5,2.1,1.3,2.9s1.9,1.2,3.4,1.2c1.1,0,2-0.2,2.6-0.8c0.6-0.5,0.9-1.1,0.9-1.8
		c0-1.2-1-2-2.9-2.5l-3.4-0.8c-3-0.6-5.3-1.8-6.7-3.4c-1.4-1.6-2.2-3.6-2.2-5.8c0-2.8,1.1-5.1,3.3-7c2.2-1.9,4.9-2.9,8.2-2.9
		c3.9,0,6.8,0.9,8.7,2.8c1.9,1.9,3,3.9,3.2,6.1l-7.6,1.4c-0.1-1.1-0.5-2-1.2-2.6c-0.7-0.7-1.7-1-3-1c-0.9,0-1.6,0.2-2.3,0.7
		c-0.6,0.5-1,1.1-1,1.9c0,1.2,0.8,1.9,2.3,2.2l4,0.8c3,0.6,5.3,1.7,6.9,3.4c1.6,1.7,2.3,3.7,2.3,6c0,2.8-1,5.1-3.1,7.1
		c-2.1,2-5,3-8.8,3c-2.2,0-4.2-0.3-5.9-1c-1.7-0.6-3-1.5-3.9-2.5c-0.9-1-1.6-2-2-3C394.5,55.4,394.3,54.5,394.2,53.5z"/>
	<path class="st4" d="M422.2,53.5l7.8-1.4c0.1,1.1,0.5,2.1,1.3,2.9s1.9,1.2,3.4,1.2c1.1,0,2-0.2,2.6-0.8c0.6-0.5,0.9-1.1,0.9-1.8
		c0-1.2-1-2-2.9-2.5l-3.4-0.8c-3-0.6-5.3-1.8-6.7-3.4c-1.4-1.6-2.2-3.6-2.2-5.8c0-2.8,1.1-5.1,3.3-7c2.2-1.9,4.9-2.9,8.2-2.9
		c3.9,0,6.8,0.9,8.7,2.8c1.9,1.9,3,3.9,3.2,6.1l-7.6,1.4c-0.1-1.1-0.5-2-1.2-2.6c-0.7-0.7-1.7-1-3-1c-0.9,0-1.6,0.2-2.3,0.7
		c-0.6,0.5-1,1.1-1,1.9c0,1.2,0.8,1.9,2.3,2.2l4,0.8c3,0.6,5.3,1.7,6.9,3.4c1.6,1.7,2.3,3.7,2.3,6c0,2.8-1,5.1-3.1,7.1
		c-2.1,2-5,3-8.8,3c-2.2,0-4.2-0.3-5.9-1c-1.7-0.6-3-1.5-3.9-2.5c-0.9-1-1.6-2-2-3C422.5,55.4,422.3,54.5,422.2,53.5z"/>
	<path class="st4" d="M466.3,31.2c4.5,0,8.3,1.5,11.3,4.4c3,3,4.5,6.8,4.5,11.4c0,4.6-1.5,8.4-4.5,11.4s-6.8,4.5-11.3,4.5
		c-4.5,0-8.3-1.5-11.3-4.5c-3-3-4.6-6.8-4.6-11.4s1.5-8.3,4.6-11.3C458.1,32.7,461.8,31.2,466.3,31.2z M466.3,54.5
		c1.9,0,3.5-0.6,4.8-1.9c1.3-1.3,2-3.1,2-5.5c0-2.4-0.7-4.2-2-5.5c-1.3-1.3-2.9-1.9-4.8-1.9c-1.8,0-3.4,0.6-4.7,1.9
		c-1.3,1.3-2,3.1-2,5.5c0,2.4,0.7,4.2,2,5.5C462.9,53.9,464.5,54.5,466.3,54.5z"/>
	<path class="st4" d="M507.1,32.1v9c-0.8-0.2-1.8-0.3-2.9-0.3c-2,0-3.7,0.7-5,2s-2,3.4-2,6.1v13h-9.1V32.1h8.8v4
		c0.7-1.5,1.8-2.6,3.3-3.3c1.5-0.7,3-1,4.4-1C505.6,31.8,506.4,31.9,507.1,32.1z"/>
</g>
</svg>
