<svg xmlns="http://www.w3.org/2000/svg" width="121.084" height="109.969" viewBox="0 0 121.084 109.969">
  <path id="mail" d="M102.165,23.5H18.919A18.941,18.941,0,0,0,0,42.419v54.63a18.941,18.941,0,0,0,18.919,18.919H51.555a4.73,4.73,0,0,0,0-9.46H18.919a9.47,9.47,0,0,1-9.46-9.46V43.422L50.551,68.973a18.8,18.8,0,0,0,19.981,0l41.092-25.552V71.981a4.73,4.73,0,1,0,9.46,0V42.419A18.941,18.941,0,0,0,102.165,23.5ZM65.538,60.94a9.4,9.4,0,0,1-9.991,0l-42.138-26.2a9.406,9.406,0,0,1,5.511-1.778h83.245a9.4,9.4,0,0,1,5.511,1.778Zm52.444,49.207a5.919,5.919,0,0,1-3.726-5.365v-7.1a21.385,21.385,0,0,0-16.348-20.7V73.873a4.73,4.73,0,0,0-9.46,0v3.056A21.383,21.383,0,0,0,71.864,97.683v7.1a5.919,5.919,0,0,1-3.726,5.365,4.558,4.558,0,0,0-3.1,4.442,15.665,15.665,0,0,0,2.872,8.814,12.508,12.508,0,0,0,10.4,5.336H88.448a4.73,4.73,0,0,0,9.46,0h9.909a12.508,12.508,0,0,0,10.4-5.336,15.667,15.667,0,0,0,2.872-8.814A4.558,4.558,0,0,0,117.981,110.148Zm-10.164,9.132H78.3a3.419,3.419,0,0,1-3.22-2.264,14.86,14.86,0,0,0,6.241-12.234v-7.1A11.859,11.859,0,0,1,92.97,85.864l.09,0,.09,0A11.859,11.859,0,0,1,104.8,97.683v7.1a14.86,14.86,0,0,0,6.241,12.234A3.419,3.419,0,0,1,107.817,119.279Z" transform="translate(0 -23.5)" fill="#0a1f44"/>
</svg>
