<svg id="Capa_1" enable-background="new 0 0 512 512" height="512" viewBox="0 0 512 512" width="512" xmlns="http://www.w3.org/2000/svg"><g><path d="m512 256c0 141.385-114.615 256-256 256s-256-114.615-256-256 114.615-256 256-256 256 114.615 256 256z" fill="#07a9f0"/><path d="m470 234c0 108.248-87.752 196-196 196s-196-87.752-196-196 87.752-196 196-196 196 87.752 196 196z" fill="#40c1fa"/><path d="m372.405 343.238c-.658-2.682.983-5.389 3.665-6.047l29.136-7.147c2.682-.658 5.389.983 6.047 3.665.658 2.682-.983 5.389-3.665 6.047l-29.136 7.147c-2.682.657-5.389-.983-6.047-3.665zm-22.026 44.529 3.574 14.568c.658 2.682 3.365 4.323 6.047 3.665 2.682-.658 4.323-3.365 3.665-6.047l-3.574-14.568c-.658-2.682-3.365-4.323-6.047-3.665-2.682.658-4.323 3.365-3.665 6.047zm17.877-18.873 25.656 15.549c2.362 1.431 5.436.677 6.867-1.685 1.431-2.362.677-5.436-1.685-6.867l-25.656-15.549c-2.362-1.431-5.436-.677-6.867 1.685-1.431 2.361-.677 5.436 1.685 6.867zm-284.702-158.267-25.656-15.549c-2.362-1.431-5.436-.677-6.867 1.685-1.431 2.362-.677 5.436 1.685 6.867l25.656 15.549c2.362 1.431 5.436.677 6.867-1.685 1.431-2.361.677-5.436-1.685-6.867zm48.747-9.045 7.774-12.828c1.431-2.362.677-5.436-1.685-6.867-2.362-1.431-5.436-.677-6.867 1.685l-7.774 12.828c-1.431 2.362-.677 5.436 1.685 6.867 2.361 1.431 5.435.676 6.867-1.685zm-25.986.705-7.147-29.136c-.658-2.682-3.365-4.323-6.047-3.665-2.682.658-4.323 3.365-3.665 6.047l7.147 29.136c.658 2.682 3.365 4.323 6.047 3.665 2.682-.658 4.323-3.365 3.665-6.047z" fill="#fff5f5"/><path d="m446.045 294.703c-11.288 6.033-23.31 10.205-35.611 12.517-7.543 1.172-15.273 1.781-23.145 1.781s-15.601-.608-23.144-1.781c-23.828-4.478-46.603-15.935-65.04-34.372-48.703-48.702-48.703-127.665 0-176.367l3.441-3.441c7.971 13.836 19.181 22.448 31.598 22.448 20.423 0 6.424-75.304 20.44-64.792 43.381 32.535 34.527-15.007 30.402-35.04-.826-4.012 1.404-5.543 3.737-5.655.236.002.473.005.709.009.823.058 1.622.281 2.264.621 12.556 6.647 22.901 16.353 30.293 27.949 2.246 3.524-2.02 61.165 9.994 87.655 26.696 58.862 24.639 162.815 14.062 168.468z" fill="#c83c50"/><path d="m317.552 54.951c1.366 7.518-3.823 17.974-13.016 21.037-10.77 3.588-22.431-4.583-25.749-14.818-2.612-8.056-.025-17.298 6.621-23.757l16.573-17.205c-.027 5.05 1.177 10.177 3.746 14.933 1.752 3.244 3.997 6.051 6.592 8.379 2.853 2.561 4.41 6.902 5.233 11.431zm163.87 47.901c-7.02 7.973-15.501 12.634-24.637 12.634-15.767 0-21.023-18.92-22.268-38.505-.882-13.882-5.29-27.049-12.527-38.402-37.314 27.184-61.565 71.219-61.565 120.918 0 59.713 35.008 111.25 85.62 135.206 10.576-5.652 29.428-21.856 29.428-21.856 46.632-46.632 48.614-121.004 5.949-169.995z" fill="#f44545"/><path d="m447.797 271.834c-33.415 33.415-87.592 33.415-121.007 0-13.077-13.077-21.036-29.334-23.878-46.281-4.894-29.19 10.888-57.674 37.651-70.313 8.665-4.092 16.786-9.721 23.951-16.887 13.22-13.221 21.21-29.691 23.969-46.84l59.314 59.314c33.415 33.415 33.415 87.591 0 121.007z" fill="#ffc14f"/><path d="m447.797 271.834c-9.09 9.091-19.718 15.708-31.045 19.852-6.895-1.572-13.706-4.031-20.28-7.425-16.433-8.483-28.957-21.552-36.815-36.834-13.535-26.321-7.158-58.255 14.497-78.431 7.012-6.533 13.037-14.363 17.685-23.368 6.816-13.203 9.861-27.358 9.526-41.234l46.432 46.432c33.415 33.416 33.415 87.592 0 121.008z" fill="#fff04a"/><path d="m404.481 274.033c-22.483 7.458-46.962-10.065-53.439-31.714-4.892-16.35.545-34.851 13.925-47.971l34.235-35.542c-.056 10.431 2.431 21.023 7.738 30.848 3.619 6.7 8.257 12.5 13.617 17.309 5.894 5.289 9.112 14.256 10.812 23.612 2.833 15.588-7.984 37.188-26.888 43.458z" fill="#fff5f5"/><path d="m215.456 397.266c-4.623-8.126-12.134-13.965-21.148-16.442l-106.069-29.146c-9.013-2.478-18.454-1.295-26.58 3.328s-13.966 12.133-16.442 21.147l-6.993 25.45c-5.113 18.609 5.866 37.909 24.476 43.022l106.068 29.146c3.092.85 6.201 1.255 9.263 1.255 15.367 0 29.496-10.213 33.76-25.73l6.993-25.45c2.476-9.014 1.294-18.454-3.328-26.58zm-15.958 21.281-6.993 25.449c-2.19 7.975-10.458 12.68-18.438 10.489l-106.069-29.145c-7.976-2.191-12.681-10.463-10.489-18.438l6.993-25.45c1.827-6.651 7.882-11.027 14.468-11.027 1.313 0 2.646.174 3.971.538l106.068 29.146c7.975 2.191 12.68 10.463 10.489 18.438z" fill="#8078bf"/><path d="m350 316c0 39.765-32.235 72-72 72h-78v-144h78c39.765 0 72 32.235 72 72z" fill="#19305c"/><path d="m310 132.152v367.695l-134.054-92.013c-18.822-12.919-41.116-19.834-63.946-19.834-39.765 0-72-32.235-72-72s32.235-72 72-72c22.83 0 45.124-6.915 63.946-19.834z" fill="#ffe1aa"/><path d="m310 132.152v295.695l-134.054-92.013c-18.822-12.919-41.116-19.834-63.946-19.834-26.65 0-49.918-14.479-62.367-36 12.449-21.521 35.717-36 62.367-36 22.83 0 45.124-6.915 63.946-19.834z" fill="#fff5f5"/><path d="m110 244v144h-38c-39.765 0-72-32.235-72-72 0-39.765 32.235-72 72-72z" fill="#453d83"/><path d="m110 244v72h-38c-26.65 0-49.918-14.479-62.367-36 12.449-21.521 35.717-36 62.367-36z" fill="#51489a"/><path d="m20 310v42c0 5.523-4.477 10-10 10s-10-4.477-10-10v-42c0-5.523 4.477-10 10-10s10 4.477 10 10zm90-43.96c-5.523 0-10 4.477-10 10v109.96c0 5.523 4.477 10 10 10s10-4.477 10-10v-109.96c0-5.523-4.477-10-10-10z" fill="#5f55af"/><path d="m20 280v36c0 5.523-4.477 10-10 10s-10-4.477-10-10v-36c0-5.523 4.477-10 10-10s10 4.477 10 10zm90-44c-5.523 0-10 4.477-10 10v104c0 5.523 4.477 10 10 10s10-4.477 10-10v-104c0-5.523-4.477-10-10-10z" fill="#8078bf"/><path d="m320 130v372c0 5.523-4.477 10-10 10s-10-4.477-10-10v-372c0-5.523 4.477-10 10-10s10 4.477 10 10z" fill="#51489a"/><path d="m320 198v194c0 5.523-4.477 10-10 10s-10-4.477-10-10v-194c0-5.523 4.477-10 10-10s10 4.477 10 10z" fill="#6a61b4"/></g></svg>